<svg xmlns="http://www.w3.org/2000/svg" width="152" height="72" viewBox="0 0 152 72">
<g>
<path d="M 61.00 59.14 C60.17,59.60 54.47,62.39 48.33,65.34 C37.97,70.30 37.11,70.54 36.64,68.72 C35.90,65.91 36.37,3.29 37.14,2.53 C37.48,2.18 43.46,4.73 50.40,8.19 L 63.04 14.48 L 62.77 36.38 C62.55,54.61 62.25,58.43 61.00,59.14 ZM 49.23 44.83 C48.99,58.77 49.16,61.00 50.48,61.00 C51.78,61.00 52.00,58.61 52.00,44.42 C52.00,31.60 51.72,27.93 50.75,28.25 C49.83,28.55 49.43,32.99 49.23,44.83 ZM 43.00 49.08 C43.00,60.70 43.29,64.07 44.25,63.75 C45.16,63.45 45.58,59.31 45.78,48.67 C46.01,36.06 45.84,34.00 44.53,34.00 C43.23,34.00 43.00,36.23 43.00,49.08 ZM 56.00 40.06 C56.00,52.51 56.35,58.90 57.00,58.50 C58.36,57.66 58.36,21.00 57.00,21.00 C56.37,21.00 56.00,28.02 56.00,40.06 Z" fill="rgb(20,133,174)"/>
<path d="M 36.65 12.00 C36.22,29.78 36.08,66.58 36.64,68.72 C37.11,70.54 37.97,70.30 48.33,65.34 C49.96,64.55 51.56,63.78 53.05,63.06 C51.56,63.79 49.95,64.56 48.30,65.35 L 37.11 70.71 L 31.80 68.80 C28.89,67.75 24.70,66.25 22.50,65.47 C20.30,64.68 16.25,63.18 13.50,62.12 L 8.50 60.20 L 8.23 39.26 C7.96,18.41 7.95,18.30 5.48,15.98 C4.12,14.70 3.00,13.28 3.00,12.83 C3.00,12.37 10.65,12.00 20.00,12.00 ZM 20.70 28.37 C22.03,29.69 24.50,28.47 24.50,26.49 C24.50,25.19 23.72,24.39 22.25,24.18 C20.59,23.95 20.00,24.36 20.00,25.76 C20.00,26.81 20.32,27.98 20.70,28.37 ZM 20.70 54.37 C22.03,55.69 24.50,54.47 24.50,52.49 C24.50,51.19 23.72,50.39 22.25,50.18 C20.59,49.95 20.00,50.36 20.00,51.76 C20.00,52.81 20.32,53.98 20.70,54.37 ZM 20.17 39.83 C19.90,41.77 20.23,42.10 22.17,41.83 C24.50,36.52 20.60,36.82 20.17,39.83 ZM 37.49 2.00 C37.76,2.00 43.50,4.75 50.29,8.13 C43.85,4.93 38.27,2.52 37.28,2.50 C37.34,2.18 37.41,2.00 37.49,2.00 Z" fill="rgb(242,182,39)"/>
<path d="M 0.00 36.00 L 0.00 0.00 L 76.00 0.00 L 152.00 0.00 L 152.00 36.00 L 152.00 72.00 L 76.00 72.00 L 0.00 72.00 L 0.00 36.00 ZM 61.00 59.14 C62.25,58.43 62.55,54.61 62.77,36.38 L 63.04 14.48 L 50.51 8.24 C43.62,4.81 37.76,2.00 37.49,2.00 C37.22,2.00 37.00,4.25 37.00,7.00 L 37.00 12.00 L 20.00 12.00 C10.65,12.00 3.00,12.37 3.00,12.83 C3.00,13.28 4.12,14.70 5.48,15.98 C7.95,18.30 7.96,18.41 8.23,39.26 L 8.50 60.20 L 13.50 62.12 C16.25,63.18 20.30,64.68 22.50,65.47 C24.70,66.25 28.89,67.75 31.80,68.80 L 37.11 70.71 L 48.30 65.35 C54.46,62.40 60.17,59.60 61.00,59.14 ZM 43.00 49.08 C43.00,36.23 43.23,34.00 44.53,34.00 C45.84,34.00 46.01,36.06 45.78,48.67 C45.58,59.31 45.16,63.45 44.25,63.75 C43.29,64.07 43.00,60.70 43.00,49.08 ZM 49.23 44.83 C49.43,32.99 49.83,28.55 50.75,28.25 C51.72,27.93 52.00,31.60 52.00,44.42 C52.00,58.61 51.78,61.00 50.48,61.00 C49.16,61.00 48.99,58.77 49.23,44.83 ZM 56.00 40.06 C56.00,28.02 56.37,21.00 57.00,21.00 C58.36,21.00 58.36,57.66 57.00,58.50 C56.35,58.90 56.00,52.51 56.00,40.06 ZM 20.70 54.37 C20.32,53.98 20.00,52.81 20.00,51.76 C20.00,50.36 20.59,49.95 22.25,50.18 C23.72,50.39 24.50,51.19 24.50,52.49 C24.50,54.47 22.03,55.69 20.70,54.37 ZM 20.17 39.83 C20.60,36.82 24.50,36.52 24.50,39.50 C24.50,40.83 23.72,41.61 22.17,41.83 C20.23,42.10 19.90,41.77 20.17,39.83 ZM 20.70 28.37 C20.32,27.98 20.00,26.81 20.00,25.76 C20.00,24.36 20.59,23.95 22.25,24.18 C23.72,24.39 24.50,25.19 24.50,26.49 C24.50,28.47 22.03,29.69 20.70,28.37 Z" fill="rgb(253,254,253)"/>
</g>
</svg>