<?xml version="1.0" encoding="UTF-8"?>
<svg version="1.1" xmlns="http://www.w3.org/2000/svg" width="93" height="109">
<path d="M0 0 C30.69 0 61.38 0 93 0 C93 35.97 93 71.94 93 109 C62.31 109 31.62 109 0 109 C0 73.03 0 37.06 0 0 Z " fill="#E6B231" transform="translate(0,0)"/>
<path d="M0 0 C30.69 0 61.38 0 93 0 C93 35.97 93 71.94 93 109 C62.31 109 31.62 109 0 109 C0 73.03 0 37.06 0 0 Z M52 6 C52 10.62 52 15.24 52 20 C37.15 20 22.3 20 7 20 C8.78601804 23.57203608 10.06686817 25.43350965 13 28 C13.66 28 14.32 28 15 28 C15 46.48 15 64.96 15 84 C18.8509288 86.2981424 18.8509288 86.2981424 23 86 C23 86.66 23 87.32 23 88 C23.84820313 88.30292969 24.69640625 88.60585937 25.5703125 88.91796875 C26.74335938 89.33691406 27.91640625 89.75585938 29.125 90.1875 C29.75156494 90.40801025 30.37812988 90.62852051 31.02368164 90.85571289 C34.3094047 92.01627209 37.56827997 93.21354018 40.80078125 94.515625 C42.00089844 94.98484375 43.20101562 95.4540625 44.4375 95.9375 C45.52933594 96.37964844 46.62117188 96.82179688 47.74609375 97.27734375 C57.32819871 99.40542228 69.23631118 90.92618626 77.5703125 86.68359375 C80.99136412 85.00423925 84.49712566 83.50123186 88 82 C88 62.53 88 43.06 88 23 C78.595 18.545 78.595 18.545 69 14 C61 9.4375 61 9.4375 57.6875 7.43359375 C55.0665006 5.7646726 55.0665006 5.7646726 52 6 Z " fill="#19191A" transform="translate(0,0)"/>
<path d="M0 0 C4.10511603 1.02627901 7.5171998 2.64852499 11.25 4.5625 C12.52591755 5.2098801 13.80196708 5.85700011 15.078125 6.50390625 C16.70234375 7.32761719 18.3265625 8.15132812 20 9 C25.28 11.64 30.56 14.28 36 17 C36 36.47 36 55.94 36 76 C33.69 76.99 31.38 77.98 29 79 C27.62230173 79.62537569 26.24785443 80.25803936 24.87890625 80.90234375 C24.17056641 81.23556641 23.46222656 81.56878906 22.73242188 81.91210938 C22.01634766 82.25048828 21.30027344 82.58886719 20.5625 82.9375 C19.85029297 83.27201172 19.13808594 83.60652344 18.40429688 83.95117188 C14.13131848 85.96540965 9.91502236 88.05302392 5.74194336 90.26782227 C4 91 4 91 1 91 C0.67 60.97 0.34 30.94 0 0 Z " fill="#3A78AD" transform="translate(52,6)"/>
<path d="M0 0 C15.18 0 30.36 0 46 0 C46 25.74 46 51.48 46 78 C44.35 77.67 42.7 77.34 41 77 C41.99 76.67 42.98 76.34 44 76 C44 51.25 44 26.5 44 1 C30.47 1.33 16.94 1.66 3 2 C2.67 2.66 2.34 3.32 2 4 C1.34 2.68 0.68 1.36 0 0 Z " fill="#B4A243" transform="translate(7,20)"/>
<path d="M0 0 C1.32 0 2.64 0 4 0 C4 14.52 4 29.04 4 44 C3.34 44 2.68 44 2 44 C2 44.66 2 45.32 2 46 C1.34 46 0.68 46 0 46 C0 30.82 0 15.64 0 0 Z " fill="#CCDFEC" transform="translate(69,41)"/>
<path d="M0 0 C0 13.53 0 27.06 0 41 C-1.32 41.66 -2.64 42.32 -4 43 C-4 29.14 -4 15.28 -4 1 C-2 0 -2 0 0 0 Z " fill="#C4DBEA" transform="translate(65,48)"/>
<path d="M0 0 C0.66 0 1.32 0 2 0 C2 16.17 2 32.34 2 49 C0.515 49.495 0.515 49.495 -1 50 C-1.02529479 43.20069165 -1.04284349 36.40139537 -1.05493164 29.60205078 C-1.05996943 27.28759304 -1.06679981 24.9731385 -1.07543945 22.65869141 C-1.08752924 19.3375571 -1.09323375 16.01646475 -1.09765625 12.6953125 C-1.10281754 11.65569366 -1.10797882 10.61607483 -1.11329651 9.54495239 C-1.11337204 8.58410736 -1.11344757 7.62326233 -1.11352539 6.63330078 C-1.115746 5.78502716 -1.11796661 4.93675354 -1.12025452 4.06277466 C-1 2 -1 2 0 0 Z " fill="#DDECF4" transform="translate(79,32)"/>
<path d="M0 0 C0.33 1.98 0.66 3.96 1 6 C-3.75 7.125 -3.75 7.125 -6 6 C-6 4.35 -6 2.7 -6 1 C-4 0 -4 0 0 0 Z " fill="#FAF1D6" transform="translate(36,53)"/>
<path d="M0 0 C1.65 0 3.3 0 5 0 C6.125 4.75 6.125 4.75 5 7 C3.35 6.67 1.7 6.34 0 6 C0 4.02 0 2.04 0 0 Z " fill="#FBF5E1" transform="translate(31,36)"/>
<path d="M0 0 C4 1 4 1 6 3 C5.01 3 4.02 3 3 3 C2.67 6.63 2.34 10.26 2 14 C1.34 14 0.68 14 0 14 C0 9.38 0 4.76 0 0 Z " fill="#2B587D" transform="translate(52,6)"/>
<path d="M0 0 C1.65 0 3.3 0 5 0 C5.33 1.65 5.66 3.3 6 5 C4.34385343 5.38218767 2.67542976 5.71395102 1 6 C0 5 0 5 -0.0625 2.4375 C-0.041875 1.633125 -0.02125 0.82875 0 0 Z " fill="#FDFAF0" transform="translate(31,71)"/>
</svg>
